PathFileType	4	(X/Y/Z)	c:/Users/goper/Files/vsCode/490R/osim_files/A04/A04_SSWS_01.trc
DataRate	CameraRate	NumFrames	NumMarkers	Units                	OrigDataRate	OrigDataStartFrame	OrigNumFrames
120.00	120.00	8	36	mm	120.0	611	1220
                Frame#	Time	LPSIS			LASIS			LTH1			LTH2			LTH3			LTH4			LLFE			LMFE			LSH1			LSH2			LSH3			LSH4			LLMAL			LMMAL			LCAL			LMTP5			LTOE			LMTP1			RPSIS			RASIS			RTH1			RTH2			RTH3			RTH4			RLFE			RMFE			RSH1			RSH2			RSH3			RSH4			RLMAL			RMMAL			RCAL			RMTP1			RTOE			RMTP5		
		X1	Y1	Z1	X2	Y2	Z2	X3	Y3	Z3	X4	Y4	Z4	X5	Y5	Z5	X6	Y6	Z6	X7	Y7	Z7	X8	Y8	Z8	X9	Y9	Z9	X10	Y10	Z10	X11	Y11	Z11	X12	Y12	Z12	X13	Y13	Z13	X14	Y14	Z14	X15	Y15	Z15	X16	Y16	Z16	X17	Y17	Z17	X18	Y18	Z18	X19	Y19	Z19	X20	Y20	Z20	X21	Y21	Z21	X22	Y22	Z22	X23	Y23	Z23	X24	Y24	Z24	X25	Y25	Z25	X26	Y26	Z26	X27	Y27	Z27	X28	Y28	Z28	X29	Y29	Z29	X30	Y30	Z30	X31	Y31	Z31	X32	Y32	Z32	X33	Y33	Z33	X34	Y34	Z34	X35	Y35	Z35	X36	Y36	Z36

611	5.08333	-152.89861	1020.48834	394.27286	-383.21005	980.56354	463.02719	-369.10562	637.79681	481.15112	-388.20312	597.62970	482.18936	-424.15619	660.89722	481.77713	-438.09354	617.69946	483.04855	-436.62350	512.54486	468.97742	-459.87796	521.87939	331.56598	-444.84811	404.97256	468.81555	-466.38037	368.84213	467.79492	-500.96164	431.12140	461.42410	-514.12817	389.75992	460.54968	-560.03455	106.69457	424.90100	-589.68579	115.24584	343.23965	-514.26642	56.18805	363.28925	-705.27148	83.65512	474.01672	-754.69470	107.66098	416.80341	-745.38849	90.50574	371.40704	-144.38011	1009.90479	288.67203	-359.14349	981.32056	176.17323	-154.21944	721.26379	154.78610	-146.53728	679.39136	156.07130	-212.39966	703.02368	139.53082	-195.44998	659.42700	146.81456	-145.98116	528.66956	171.78107	-169.27559	519.50024	289.54105	0.44699	360.80756	185.28899	15.10479	315.51389	193.74756	-55.21090	333.96082	175.99796	-29.48763	293.28568	180.47855	75.84985	130.59254	186.17293	36.40842	123.33959	315.46945	150.72697	101.23433	268.35471	-63.30163	47.97625	286.86108	-84.83955	67.80404	237.04321	-43.30752	47.77530	165.95267
612	5.09167	-163.57352	1019.64587	395.02951	-393.89304	980.01959	462.94235	-378.93484	640.17017	484.37024	-397.05792	598.89484	485.63153	-434.58615	661.63147	485.23239	-447.14853	618.78339	486.74066	-445.59842	512.77814	472.70267	-469.37305	522.74829	335.39606	-452.22845	405.04178	471.73657	-473.10428	368.56076	470.38754	-508.75806	430.36960	464.63318	-521.09821	388.88797	463.42664	-563.06262	105.76891	425.56287	-592.46222	114.72446	344.20795	-516.26208	56.70129	363.72623	-707.62299	78.27550	474.66373	-757.54803	101.53755	417.82199	-748.23492	85.24359	372.13135	-154.92899	1008.61694	289.49551	-369.44183	980.08588	176.49576	-165.76367	719.30139	155.88927	-157.41637	677.81335	156.66832	-223.42976	701.46252	140.01830	-206.58203	657.85132	147.17751	-158.17950	526.31616	171.74889	-181.26515	517.34210	289.84241	-8.22437	361.59430	185.64572	7.64295	316.88760	194.08447	-63.22139	333.50790	176.47440	-36.58205	293.49927	181.05881	73.06804	133.53865	186.75392	33.35573	125.16113	316.04022	148.53128	105.27525	269.03311	-64.15189	47.75856	287.07587	-85.66454	67.27181	237.11888	-43.69893	47.87474	165.94011
613	5.10000	-173.89333	1019.35022	395.67859	-404.20010	979.84058	463.01489	-388.51068	640.32739	487.36136	-406.29874	598.94757	488.33331	-444.25372	661.37878	488.69736	-456.65085	618.58258	489.94580	-454.70050	513.47009	476.62994	-479.05603	524.20172	339.41623	-458.59781	406.08249	475.04099	-479.61472	368.84372	473.21384	-516.05737	430.18100	468.02881	-527.96301	388.38095	466.42026	-564.89197	105.10361	426.01794	-594.54730	114.00143	344.96207	-516.63226	57.66225	363.92465	-708.67365	75.01926	475.46744	-758.85297	97.76682	418.83450	-749.38684	81.16168	373.33755	-165.38959	1007.70752	290.18863	-379.98645	979.15710	176.85786	-177.70792	717.31311	156.64661	-169.92583	675.59235	157.29816	-235.43571	699.72156	140.51840	-218.81464	656.01917	147.44032	-171.72633	523.57892	171.46367	-194.03224	514.99097	289.93729	-17.91058	362.42587	187.16292	-0.41128	318.35568	194.24698	-71.85951	333.01526	176.79932	-44.13915	293.68906	181.42238	69.77715	136.87169	187.50015	29.92215	127.32791	316.64380	146.06647	109.98486	269.92950	-65.36860	47.44138	286.95288	-86.87573	66.81419	236.74173	-44.09564	47.98322	165.98410
614	5.10833	-183.92233	1019.37952	396.31586	-414.00275	979.77271	463.34793	-397.82010	639.85577	490.55246	-415.70691	598.45630	490.72232	-453.94205	660.95923	492.70868	-466.04691	617.96381	493.28848	-463.74149	514.12738	480.39261	-488.71790	525.52338	343.27734	-465.69452	406.67230	477.94611	-486.10620	369.05441	475.80942	-523.65234	429.88232	471.35562	-534.83691	387.96875	469.46481	-566.72968	104.49070	426.57678	-596.70691	113.37543	345.78030	-517.32233	58.91548	364.76440	-709.75537	71.75713	476.25507	-760.35663	94.14965	419.91861	-750.70721	78.07276	374.23041	-175.78871	1007.04486	290.86133	-390.51663	978.41962	177.24826	-190.57713	715.00317	157.17680	-182.67009	673.43469	157.30466	-248.35023	697.89374	140.89354	-231.92412	654.08868	147.41357	-186.43593	520.53790	170.90584	-207.83580	512.35767	289.60336	-28.35417	363.40826	187.17152	-9.70216	319.87915	194.40514	-81.22407	332.48969	177.02150	-52.45773	293.97955	181.71320	66.08897	140.66711	188.24683	25.81709	129.87399	317.35663	143.06119	115.49216	271.11313	-66.50051	47.39134	287.29987	-88.32858	66.09784	236.65532	-44.66757	48.12435	166.16299
615	5.11667	-193.79222	1019.62787	396.89484	-423.70584	980.36926	463.72241	-406.75943	640.32141	493.83804	-423.61737	598.61499	493.80014	-462.69168	661.08179	497.08115	-474.77701	617.78741	496.93314	-472.64694	514.68591	483.85306	-498.28772	526.61334	346.87222	-473.67331	406.80341	480.26788	-492.53931	369.31589	478.23434	-531.13892	429.41327	474.42001	-541.53577	387.49567	472.12787	-569.36920	103.67267	426.67062	-599.26166	112.83368	346.81631	-518.56586	59.84816	365.03189	-711.37958	67.69062	477.13074	-762.49359	89.33127	421.06033	-752.31000	73.92726	375.14490	-186.09262	1006.66473	291.42911	-400.86688	977.73615	178.06764	-204.43855	712.28589	157.46756	-197.30984	670.53619	157.38237	-262.41611	695.85052	141.21812	-246.32570	651.76807	147.31184	-202.20340	517.26276	170.44682	-222.98796	509.38092	289.10959	-39.86574	364.57257	186.91394	-19.79169	321.76770	194.40717	-91.78501	331.56442	176.21642	-61.43761	294.42166	182.23082	61.62784	144.88516	189.21898	21.10244	132.95447	318.01178	139.16870	121.81904	272.42908	-68.23153	47.37189	287.27686	-90.12069	65.42934	236.44823	-45.57640	48.37183	166.16852
616	5.12500	-203.28560	1020.29346	397.27881	-432.74985	981.26038	464.37711	-414.52661	641.62146	496.88593	-431.94208	599.24500	496.55191	-470.99118	661.36694	500.37018	-482.91248	618.10468	500.73297	-481.19598	515.37836	486.90744	-507.73218	527.84314	350.00568	-480.21170	407.70065	482.48578	-498.62360	369.73276	480.28134	-538.09503	429.22610	477.09433	-547.87561	387.24780	474.45224	-570.91461	103.62296	426.80673	-601.17322	112.38467	347.29111	-519.37537	60.56635	365.11392	-712.36633	65.53920	477.46750	-764.01251	86.03349	421.59830	-753.56006	71.00130	375.63211	-196.10007	1006.57880	291.87137	-411.41684	977.32391	178.99147	-219.16930	709.32886	157.39386	-212.47878	667.55139	157.05679	-277.24973	693.72992	141.36465	-262.14865	649.17139	147.91882	-219.72964	513.73389	169.38577	-238.98961	506.41092	288.16705	-52.27594	365.97327	186.53525	-30.85399	323.80917	194.25864	-103.16069	331.03571	175.70943	-71.89069	294.80432	180.92091	56.92136	150.19370	189.72115	15.77674	136.75340	318.66422	134.86163	129.36514	273.68402	-70.16628	47.59915	287.21768	-92.19781	64.76498	235.94521	-46.34862	48.85931	166.24672
617	5.13333	-212.55075	1021.31293	397.65500	-441.68436	982.60706	465.36710	-422.50259	642.46924	499.31433	-439.68768	599.88184	499.07010	-479.05502	661.66931	503.36139	-489.98199	618.30048	503.90533	-489.51456	516.32294	489.49045	-516.86810	529.16174	352.80557	-485.47763	409.37402	484.98355	-504.29068	370.43790	481.97440	-545.02173	429.20721	479.29752	-553.89465	387.31555	476.43695	-571.31018	103.56876	426.72198	-601.98315	111.49889	346.98444	-519.54437	60.65699	365.04773	-712.64532	65.38183	477.15024	-764.31207	85.95016	421.37521	-753.73810	70.69987	375.43228	-205.98419	1006.69281	292.21814	-421.61038	977.14630	180.25899	-234.76314	706.03729	157.16010	-228.18913	664.45813	156.37466	-292.86877	691.59595	141.85222	-278.43503	646.73175	146.70457	-238.44315	510.09305	168.46706	-257.36984	503.01227	286.64130	-65.92708	367.64288	186.01093	-42.96757	326.35379	194.02971	-115.48265	331.01074	175.19812	-82.97644	295.85147	180.69238	50.96571	155.84006	190.68282	9.70215	141.30759	319.23969	129.01138	137.98300	275.20331	-72.35708	48.20996	287.08066	-94.34206	64.31992	235.30815	-47.33105	49.61529	166.02222
618	5.14167	-221.57138	1022.42383	397.95715	-450.44995	984.02057	466.75696	-428.11429	644.46582	502.55615	-446.45514	600.63721	500.21561	-487.07874	661.72150	505.96164	-497.42300	618.39062	506.47650	-497.95746	517.31256	491.62112	-525.06488	530.21234	354.81601	-492.05731	410.34189	486.71234	-510.11633	371.19000	483.57486	-551.91327	429.30270	480.94217	-559.95148	387.31424	477.94281	-571.54834	103.44006	426.86667	-601.81006	111.83957	347.12305	-519.67957	60.67196	365.15991	-712.75677	64.93256	477.39487	-764.48273	85.52514	421.72977	-753.89886	70.40716	375.73230	-215.78076	1006.92279	292.51819	-432.09848	977.15686	181.73050	-251.05748	702.38312	156.68231	-245.48700	660.98303	155.72147	-310.31247	688.88000	141.31000	-296.20956	643.93280	146.74251	-258.37393	506.41266	167.57443	-273.91583	500.45135	286.46359	-80.71308	369.21823	185.58678	-56.31736	329.19186	193.80037	-128.62309	331.06241	174.50169	-94.96902	297.11603	180.34521	44.33041	162.55980	191.46394	2.77480	146.44014	319.95050	122.51138	147.60303	276.86636	-74.99528	49.05246	286.91772	-97.05247	63.86393	234.55540	-48.68367	50.56690	166.19756
